REM DIRINDEX 1\2\3,1\2\4,1\2\5,1\2\6
REM DIRNAME cjc157,folder01,folder02,folder03,folder04,folder05
TITLE ""
FILE "103 103.mp3" MP3
  TRACK 01 AUDIO
    TITLE "0:"
    INDEX 01 00:00:00
  TRACK 02 AUDIO
    TITLE "3:cjc157_3880"
    INDEX 01 00:00:07
  TRACK 03 AUDIO
    TITLE "0:"
    INDEX 01 00:01:21
  TRACK 04 AUDIO
    TITLE "4:cjc157_3881"
    INDEX 01 00:01:68
  TRACK 05 AUDIO
    TITLE "0:"
    INDEX 01 00:03:27
  TRACK 06 AUDIO
    TITLE "5:cjc157_3882"
    INDEX 01 00:03:72
  TRACK 07 AUDIO
    TITLE "0:"
    INDEX 01 00:06:71
  TRACK 08 AUDIO
    TITLE "5:cjc157_3883"
    INDEX 01 00:07:45
  TRACK 09 AUDIO
    TITLE "0:"
    INDEX 01 00:09:04
  TRACK 10 AUDIO
    TITLE "3:cjc157_3884"
    INDEX 01 00:09:49
  TRACK 11 AUDIO
    TITLE "0:"
    INDEX 01 00:11:03
  TRACK 12 AUDIO
    TITLE "4:cjc157_3885"
    INDEX 01 00:11:46
  TRACK 13 AUDIO
    TITLE "0:"
    INDEX 01 00:12:71
  TRACK 14 AUDIO
    TITLE "5:cjc157_3886"
    INDEX 01 00:13:43
  TRACK 15 AUDIO
    TITLE "0:"
    INDEX 01 00:16:48
  TRACK 16 AUDIO
    TITLE "3:cjc157_3887"
    INDEX 01 00:17:18
  TRACK 17 AUDIO
    TITLE "0:"
    INDEX 01 00:18:23
  TRACK 18 AUDIO
    TITLE "4:cjc157_3888"
    INDEX 01 00:18:70
  TRACK 19 AUDIO
    TITLE "0:"
    INDEX 01 00:19:73
  TRACK 20 AUDIO
    TITLE "5:cjc157_3889"
    INDEX 01 00:20:45
  TRACK 21 AUDIO
    TITLE "0:"
    INDEX 01 00:22:60
  TRACK 22 AUDIO
    TITLE "5:cjc157_3890"
    INDEX 01 00:23:32
  TRACK 23 AUDIO
    TITLE "0:"
    INDEX 01 00:25:74
  TRACK 24 AUDIO
    TITLE "3:cjc157_3891"
    INDEX 01 00:26:46
  TRACK 25 AUDIO
    TITLE "0:"
    INDEX 01 00:27:51
  TRACK 26 AUDIO
    TITLE "4:cjc157_3892"
    INDEX 01 00:28:27
  TRACK 27 AUDIO
    TITLE "0:"
    INDEX 01 00:29:36
  TRACK 28 AUDIO
    TITLE "5:cjc157_3893"
    INDEX 01 00:30:06
  TRACK 29 AUDIO
    TITLE "0:"
    INDEX 01 00:33:21
  TRACK 30 AUDIO
    TITLE "5:cjc157_3894"
    INDEX 01 00:33:66
  TRACK 31 AUDIO
    TITLE "0:"
    INDEX 01 00:35:43
  TRACK 32 AUDIO
    TITLE "3:cjc157_3895"
    INDEX 01 00:36:15
  TRACK 33 AUDIO
    TITLE "0:"
    INDEX 01 00:37:22
  TRACK 34 AUDIO
    TITLE "4:cjc157_3896"
    INDEX 01 00:37:69
  TRACK 35 AUDIO
    TITLE "0:"
    INDEX 01 00:39:07
  TRACK 36 AUDIO
    TITLE "5:cjc157_3897"
    INDEX 01 00:39:51
  TRACK 37 AUDIO
    TITLE "0:"
    INDEX 01 00:41:36
  TRACK 38 AUDIO
    TITLE "5:cjc157_3898"
    INDEX 01 00:42:12
  TRACK 39 AUDIO
    TITLE "0:"
    INDEX 01 00:43:68
  TRACK 40 AUDIO
    TITLE "3:cjc157_3899"
    INDEX 01 00:44:40
  TRACK 41 AUDIO
    TITLE "0:"
    INDEX 01 00:45:71
  TRACK 42 AUDIO
    TITLE "4:cjc157_3900"
    INDEX 01 00:46:37
  TRACK 43 AUDIO
    TITLE "0:"
    INDEX 01 00:47:58
  TRACK 44 AUDIO
    TITLE "5:cjc157_3901"
    INDEX 01 00:48:26
  TRACK 45 AUDIO
    TITLE "0:"
    INDEX 01 00:51:03
  TRACK 46 AUDIO
    TITLE "5:cjc157_3902"
    INDEX 01 00:51:50
  TRACK 47 AUDIO
    TITLE "0:"
    INDEX 01 00:54:19
  TRACK 48 AUDIO
    TITLE "3:cjc157_3903"
    INDEX 01 00:54:60
  TRACK 49 AUDIO
    TITLE "0:"
    INDEX 01 00:56:08
  TRACK 50 AUDIO
    TITLE "4:cjc157_3904"
    INDEX 01 00:56:55
  TRACK 51 AUDIO
    TITLE "0:"
    INDEX 01 00:57:72
  TRACK 52 AUDIO
    TITLE "5:cjc157_3905"
    INDEX 01 00:58:42
  TRACK 53 AUDIO
    TITLE "0:"
    INDEX 01 01:02:20
  TRACK 54 AUDIO
    TITLE "5:cjc157_3906"
    INDEX 01 01:02:65
  TRACK 55 AUDIO
    TITLE "0:"
    INDEX 01 01:05:17
  TRACK 56 AUDIO
    TITLE "3:cjc157_3907"
    INDEX 01 01:05:62
  TRACK 57 AUDIO
    TITLE "0:"
    INDEX 01 01:07:31
  TRACK 58 AUDIO
    TITLE "4:cjc157_3908"
    INDEX 01 01:08:07
  TRACK 59 AUDIO
    TITLE "0:"
    INDEX 01 01:09:26
  TRACK 60 AUDIO
    TITLE "5:cjc157_3909"
    INDEX 01 01:10:10
  TRACK 61 AUDIO
    TITLE "0:"
    INDEX 01 01:12:19
  TRACK 62 AUDIO
    TITLE "5:cjc157_3910"
    INDEX 01 01:12:68
  TRACK 63 AUDIO
    TITLE "0:"
    INDEX 01 01:14:66
  TRACK 64 AUDIO
    TITLE "5:cjc157_3911"
    INDEX 01 01:15:35
  TRACK 65 AUDIO
    TITLE "0:"
    INDEX 01 01:17:00
  TRACK 66 AUDIO
    TITLE "3:cjc157_3912"
    INDEX 01 01:17:45
  TRACK 67 AUDIO
    TITLE "0:"
    INDEX 01 01:18:68
  TRACK 68 AUDIO
    TITLE "4:cjc157_3913"
    INDEX 01 01:19:38
  TRACK 69 AUDIO
    TITLE "0:"
    INDEX 01 01:20:53
  TRACK 70 AUDIO
    TITLE "5:cjc157_3914"
    INDEX 01 01:21:23
  TRACK 71 AUDIO
    TITLE "0:"
    INDEX 01 01:23:40
  TRACK 72 AUDIO
    TITLE "5:cjc157_3915"
    INDEX 01 01:24:06
  TRACK 73 AUDIO
    TITLE "0:"
    INDEX 01 01:26:40
  TRACK 74 AUDIO
    TITLE "3:cjc157_3916"
    INDEX 01 01:27:12
  TRACK 75 AUDIO
    TITLE "0:"
    INDEX 01 01:28:20
  TRACK 76 AUDIO
    TITLE "4:cjc157_3917"
    INDEX 01 01:28:65
  TRACK 77 AUDIO
    TITLE "0:"
    INDEX 01 01:29:72
  TRACK 78 AUDIO
    TITLE "5:cjc157_3918"
    INDEX 01 01:30:44
  TRACK 79 AUDIO
    TITLE "0:"
    INDEX 01 01:34:18
  TRACK 80 AUDIO
    TITLE "5:cjc157_3919"
    INDEX 01 01:34:59
  TRACK 81 AUDIO
    TITLE "0:"
    INDEX 01 01:36:56
